<?xml version="1.0" encoding="utf-8"?>
<!-- Generator: Adobe Illustrator 19.0.0, SVG Export Plug-In . SVG Version: 6.00 Build 0)  -->
<svg version="1.1" id="Layer_1" xmlns="http://www.w3.org/2000/svg" xmlns:xlink="http://www.w3.org/1999/xlink" x="0px" y="0px"
	 viewBox="0 0 110.3 7.2" style="enable-background:new 0 0 110.3 7.2;" xml:space="preserve">
<style type="text/css">
	.st0{fill:#4BABD1;}
	.st1{fill:#276EB6;}
	.st2{fill:#8566AD;}
	.st3{fill:#554190;}
	.st4{fill:#05B18D;}
	.st5{fill:#3A8DB8;}
	.st6{fill:#FAC328;}
	.st7{fill:#F99F2B;}
	.st8{fill:#F47D36;}
	.st9{fill:#BA3835;}
</style>
<path class="st0" d="M3.7,0.5c1.7,0,3.1,1.4,3.1,3.1S5.4,6.7,3.7,6.7C2,6.7,0.7,5.3,0.7,3.6S2,0.5,3.7,0.5"/>
<path class="st1" d="M13.9,0.6c1.7,0,3.1,1.4,3.1,3.1s-1.4,3.1-3.1,3.1c-1.7,0-3.1-1.4-3.1-3.1S12.2,0.6,13.9,0.6"/>
<path class="st2" d="M24,0.5c1.7,0,3.1,1.4,3.1,3.1S25.7,6.7,24,6.7c-1.7,0-3.1-1.4-3.1-3.1S22.3,0.5,24,0.5"/>
<path class="st3" d="M34.3,0.6c1.7,0,3.1,1.4,3.1,3.1S36,6.7,34.3,6.7c-1.7,0-3.1-1.4-3.1-3.1S32.6,0.6,34.3,0.6"/>
<path class="st4" d="M44.8,0.6c1.7,0,3.1,1.4,3.1,3.1s-1.4,3.1-3.1,3.1c-1.7,0-3.1-1.4-3.1-3.1S43.1,0.6,44.8,0.6"/>
<path class="st5" d="M55.1,0.6c1.7,0,3.1,1.4,3.1,3.1c0,1.7-1.4,3.1-3.1,3.1c-1.7,0-3.1-1.4-3.1-3.1C52,2,53.4,0.6,55.1,0.6"/>
<path class="st4" d="M65.2,0.6c1.7,0,3.1,1.4,3.1,3.1c0,1.7-1.4,3.1-3.1,3.1c-1.7,0-3.1-1.4-3.1-3.1C62.1,2,63.5,0.6,65.2,0.6"/>
<path class="st6" d="M75.4,0.6c1.7,0,3.1,1.4,3.1,3.1s-1.4,3.1-3.1,3.1c-1.7,0-3.1-1.4-3.1-3.1S73.7,0.6,75.4,0.6"/>
<path class="st7" d="M85.7,0.6c1.7,0,3.1,1.4,3.1,3.1s-1.4,3.1-3.1,3.1c-1.7,0-3.1-1.4-3.1-3.1S84,0.6,85.7,0.6"/>
<path class="st8" d="M96.1,0.6c1.7,0,3.1,1.4,3.1,3.1s-1.4,3.1-3.1,3.1c-1.7,0-3.1-1.4-3.1-3.1S94.4,0.6,96.1,0.6"/>
<path class="st9" d="M106.7,0.7c1.7,0,3.1,1.4,3.1,3.1c0,1.7-1.4,3.1-3.1,3.1c-1.7,0-3.1-1.4-3.1-3.1C103.7,2,105,0.7,106.7,0.7"/>
</svg>
